<svg width="512" height="512" xmlns="http://www.w3.org/2000/svg" stroke="null" style="vector-effect: non-scaling-stroke;" fill="#000000" version="1.1" xml:space="preserve">
 <g stroke="null">
  <title stroke="null">Layer 1</title>
  <rect id="svg_5" height="512" width="512" y="0" x="0" stroke="null" fill="#000000"/>
  <rect id="svg_8" height="360" width="130" y="207.55268" x="191" fill="#ffffff"/>
  <polygon stroke="null" fill="#7f0000" points="256.3908996582031,605.9951477050781 286.89410400390625,321.0748291015625 262.4233093261719,264.80517578125 274.4310302734375,224.66827392578125 238.35719299316406,224.66827392578125 250.3902130126953,264.80517578125 225.88145446777344,321.0748291015625 " id="svg_3"/>
  <path fill="#191919" stroke="null" d="m448.2339,802.58801l52.9281,0l-13.20945,-224.93573l-26.50919,-297.60161l-125.65648,-52.90726l-13.23029,-26.45363l-13.2164,52.90726l-52.94199,304.24106l-52.90726,-304.2619l-13.25112,-52.90726l-13.2164,26.45363l-125.66343,52.90032l-26.46752,297.62939l-13.20945,224.93573l52.91421,0l48.28187,-291.91363l17.83484,66.94317l-52.9281,222.55358l152.13095,66.13755l26.45363,-130.17075l26.43974,130.17075l152.15873,-66.13755l-52.95588,-222.55358l17.84873,-66.94317l48.37216,291.91363zm-52.37944,-412.60441l-53.7615,7.45202l35.55162,-43.83705l18.20988,14.07064l0,22.31439z" id="svg_4"/>
  <ellipse stroke="null" ry="91.5" rx="91" id="svg_10" cy="141.51851" cx="256" fill="#000000"/>
 </g>

</svg>