<?xml version="1.0" standalone="no"?>
<!DOCTYPE svg PUBLIC "-//W3C//DTD SVG 20010904//EN"
 "http://www.w3.org/TR/2001/REC-SVG-20010904/DTD/svg10.dtd">
<svg version="1.0" xmlns="http://www.w3.org/2000/svg"
 width="880.000000pt" height="880.000000pt" viewBox="0 0 880.000000 880.000000"
 preserveAspectRatio="xMidYMid meet">
<metadata>
Created by potrace 1.14, written by Peter Selinger 2001-2017
</metadata>
<g transform="translate(0.000000,880.000000) scale(0.100000,-0.100000)"
fill="#000000" stroke="none">
<path d="M4177 8794 c-1 -1 -47 -5 -102 -8 -55 -4 -118 -9 -140 -12 -42 -5
-93 -11 -160 -20 -22 -2 -62 -9 -90 -14 -27 -5 -63 -12 -79 -14 -16 -3 -52
-10 -80 -16 -28 -6 -61 -12 -73 -15 -125 -23 -427 -113 -606 -179 -146 -54
-445 -192 -562 -259 -11 -7 -52 -30 -90 -51 -166 -93 -469 -307 -645 -456
-201 -171 -461 -442 -606 -632 -26 -35 -51 -65 -54 -68 -12 -10 -129 -177
-192 -275 -195 -302 -362 -652 -472 -990 -52 -159 -57 -172 -61 -192 -3 -10
-18 -72 -35 -138 -26 -104 -39 -167 -65 -310 -5 -29 -28 -187 -39 -273 -27
-207 -27 -725 -1 -937 28 -225 47 -342 79 -480 2 -11 11 -51 20 -90 25 -116
93 -338 153 -498 62 -170 75 -199 179 -412 77 -158 89 -179 169 -313 28 -46
55 -91 60 -100 151 -255 507 -676 766 -907 104 -93 124 -110 219 -185 518
-412 1111 -694 1785 -849 96 -22 304 -57 395 -67 30 -3 66 -7 79 -9 157 -26
804 -26 941 0 8 2 44 6 80 10 66 6 164 21 210 30 14 3 50 9 80 15 216 38 540
133 785 230 319 126 645 304 925 504 266 190 555 450 750 676 36 41 67 77 70
80 16 14 164 206 217 280 61 85 193 287 193 294 0 3 21 40 46 83 188 315 369
778 459 1173 28 122 28 122 45 215 21 123 28 166 35 233 3 26 7 61 10 77 26
177 27 806 0 940 -2 11 -7 47 -10 80 -8 78 -14 117 -30 205 -3 14 -7 41 -10
60 -36 221 -138 571 -242 830 -59 148 -206 447 -284 580 -129 220 -301 459
-474 660 -150 174 -419 432 -579 555 -160 123 -203 156 -268 200 -161 111
-368 230 -558 322 -188 91 -177 85 -275 123 -44 17 -89 35 -100 40 -32 14
-254 88 -320 106 -115 31 -375 92 -417 98 -24 3 -54 8 -68 11 -34 7 -169 26
-277 40 -119 14 -675 30 -686 19z"/>
</g>
</svg>
